<?xml version="1.0" encoding="UTF-8"?>
<!DOCTYPE svg PUBLIC "-//W3C//DTD SVG 1.1//EN" "http://www.w3.org/Graphics/SVG/1.1/DTD/svg11.dtd">
<svg xmlns="http://www.w3.org/2000/svg" version="1.1" width="844px" height="256px" style="shape-rendering:geometricPrecision; text-rendering:geometricPrecision; image-rendering:optimizeQuality; fill-rule:evenodd; clip-rule:evenodd" xmlns:xlink="http://www.w3.org/1999/xlink">
<g><path style="opacity:0.965" fill="#11100b" d="M 682.5,-0.5 C 686.167,-0.5 689.833,-0.5 693.5,-0.5C 694.511,1.40239 694.678,3.40239 694,5.5C 680.842,47.7993 670.675,90.7993 663.5,134.5C 663.187,141.006 666.187,143.172 672.5,141C 675,140.625 677.333,139.792 679.5,138.5C 680.72,138.887 681.387,139.72 681.5,141C 679.459,143.692 676.792,145.692 673.5,147C 666.87,150.409 659.87,151.742 652.5,151C 651.333,150.5 650.5,149.667 650,148.5C 649.292,139.409 649.959,130.409 652,121.5C 660.49,81.7181 669.49,42.0514 679,2.5C 680.145,1.36362 681.312,0.363622 682.5,-0.5 Z"/></g>
<g><path style="opacity:0.954" fill="#39ae6b" d="M 76.5,19.5 C 84.84,19.3336 93.1733,19.5003 101.5,20C 106.764,20.8987 111.764,22.5654 116.5,25C 118.774,26.7651 120.441,28.9318 121.5,31.5C 119.671,39.8152 118.004,48.1485 116.5,56.5C 114.5,56.5 112.5,56.5 110.5,56.5C 113.55,40.3598 106.884,30.8598 90.5,28C 72.9474,26.1914 58.4474,32.0247 47,45.5C 29.627,69.0318 24.2937,95.0318 31,123.5C 37.8461,137.183 49.0127,144.183 64.5,144.5C 70.5849,144.488 76.2516,142.988 81.5,140C 84.9219,132.91 87.0885,125.41 88,117.5C 88.6667,114.167 88.6667,110.833 88,107.5C 87.5,107 87,106.5 86.5,106C 80.824,104.691 75.1574,104.524 69.5,105.5C 69.9926,103.194 70.3259,100.861 70.5,98.5C 81.8382,98.3335 93.1716,98.5001 104.5,99C 105.622,102.409 105.789,105.909 105,109.5C 102.667,120.167 100.333,130.833 98,141.5C 94.0033,146.253 88.8366,149.086 82.5,150C 65.039,154.205 48.039,152.872 31.5,146C 19.8436,139.521 13.0102,129.688 11,116.5C 8.34675,80.3144 21.5134,51.4811 50.5,30C 58.7404,25.2035 67.407,21.7035 76.5,19.5 Z"/></g>
<g><path style="opacity:0.959" fill="#11100b" d="M 637.5,26.5 C 643.626,25.7215 646.626,28.3881 646.5,34.5C 646.042,41.7929 642.208,46.1263 635,47.5C 628.828,45.272 626.828,40.9386 629,34.5C 630.773,30.5596 633.606,27.893 637.5,26.5 Z"/></g>
<g><path style="opacity:0.948" fill="#3aae6b" d="M 307.5,66.5 C 321.867,66.2311 326.701,72.8978 322,86.5C 312.213,105.079 300.213,122.079 286,137.5C 281.466,141.699 277.299,146.199 273.5,151C 270.854,151.497 268.187,151.664 265.5,151.5C 266.063,129.436 265.229,107.436 263,85.5C 262.908,81.2873 260.908,78.6206 257,77.5C 253.915,78.432 250.748,79.0986 247.5,79.5C 247.141,77.2341 247.808,75.4007 249.5,74C 257.434,70.4641 265.601,69.2974 274,70.5C 276.424,75.1944 277.757,80.1944 278,85.5C 279.01,101.818 279.676,118.152 280,134.5C 289.897,123.042 298.564,110.709 306,97.5C 310.09,90.1704 311.09,82.5037 309,74.5C 307.818,72.6564 306.651,70.8231 305.5,69C 306.056,67.9889 306.722,67.1556 307.5,66.5 Z"/></g>
<g><path style="opacity:0.944" fill="#3aae6b" d="M 165.5,68.5 C 177.977,67.1274 181.81,72.1274 177,83.5C 175.649,85.019 174.149,86.3523 172.5,87.5C 169.229,83.9111 165.229,82.7444 160.5,84C 156.56,85.8865 153.06,88.3865 150,91.5C 137.611,109.148 128.778,128.482 123.5,149.5C 118.848,149.998 114.181,150.331 109.5,150.5C 114.974,127.603 119.974,104.603 124.5,81.5C 123.271,79.0816 121.271,78.0816 118.5,78.5C 115.389,78.6945 112.389,79.3611 109.5,80.5C 108.369,78.9255 108.202,77.2588 109,75.5C 117.723,71.36 126.89,69.5267 136.5,70C 138.523,73.1831 139.023,76.6831 138,80.5C 135.487,90.8781 133.154,101.211 131,111.5C 137.115,96.0774 146.282,82.9108 158.5,72C 160.925,70.7874 163.259,69.6207 165.5,68.5 Z"/></g>
<g><path style="opacity:0.948" fill="#3aae6b" d="M 216.5,68.5 C 235.914,66.0781 243.747,74.4114 240,93.5C 237.176,105.131 234.509,116.798 232,128.5C 230.22,143.053 235.886,147.053 249,140.5C 250.365,141.593 250.699,142.926 250,144.5C 241.752,151.734 232.585,153.234 222.5,149C 220.951,147.786 219.785,146.286 219,144.5C 217.465,139.861 217.132,135.194 218,130.5C 210.288,141.93 199.788,149.264 186.5,152.5C 177.166,151.832 172.166,146.832 171.5,137.5C 173.498,124.327 180.832,115.494 193.5,111C 203.49,107.817 213.656,105.65 224,104.5C 225.403,99.3867 226.57,94.22 227.5,89C 225.269,77.8766 218.602,73.8766 207.5,77C 198.754,81.0659 196.42,87.5659 200.5,96.5C 196.606,99.8111 192.273,100.311 187.5,98C 183.904,89.8149 185.904,83.1483 193.5,78C 200.747,73.5365 208.414,70.3698 216.5,68.5 Z M 213.5,111.5 C 216.167,111.5 218.833,111.5 221.5,111.5C 218.705,121.566 213.039,129.733 204.5,136C 189.235,144.071 184.402,139.904 190,123.5C 196.4,116.543 204.234,112.543 213.5,111.5 Z"/></g>
<g><path style="opacity:0.944" fill="#3aae6b" d="M 477.5,68.5 C 489.977,67.1274 493.81,72.1274 489,83.5C 487.649,85.019 486.149,86.3523 484.5,87.5C 481.229,83.9111 477.229,82.7444 472.5,84C 468.56,85.8865 465.06,88.3865 462,91.5C 449.666,109.172 440.833,128.505 435.5,149.5C 430.848,149.998 426.181,150.331 421.5,150.5C 426.892,127.763 431.892,104.93 436.5,82C 435.576,79.116 433.576,77.9493 430.5,78.5C 427.389,78.6945 424.389,79.3611 421.5,80.5C 420.369,78.9255 420.202,77.2588 421,75.5C 429.723,71.36 438.89,69.5267 448.5,70C 450.523,73.1831 451.023,76.6831 450,80.5C 447.487,90.8781 445.154,101.211 443,111.5C 449.115,96.0774 458.282,82.9108 470.5,72C 472.925,70.7874 475.259,69.6207 477.5,68.5 Z"/></g>
<g><path style="opacity:0.956" fill="#11100b" d="M 586.5,68.5 C 593.639,67.9093 600.139,69.5759 606,73.5C 611.86,85.5838 608.693,94.7505 596.5,101C 583.984,106.137 570.984,109.303 557.5,110.5C 555.474,119.311 556.641,127.644 561,135.5C 567.133,141.537 574.3,143.037 582.5,140C 587.761,137.79 592.594,134.957 597,131.5C 599.188,132.059 599.854,133.393 599,135.5C 587.153,149.783 572.319,154.616 554.5,150C 542.963,141.745 538.797,130.579 542,116.5C 547.136,91.2067 561.97,75.2067 586.5,68.5 Z M 579.5,76.5 C 593.527,76.2122 597.027,82.2122 590,94.5C 580.455,100.844 569.955,104.011 558.5,104C 562.014,92.0082 569.014,82.8415 579.5,76.5 Z"/></g>
<g><path style="opacity:0.956" fill="#11100b" d="M 731.5,68.5 C 739.204,67.7981 746.038,69.7981 752,74.5C 756.521,83.7895 754.687,91.6228 746.5,98C 733.142,105.258 718.808,109.258 703.5,110C 700.703,117.953 701.203,125.787 705,133.5C 711.974,141.956 720.474,143.789 730.5,139C 734.344,136.485 738.177,133.985 742,131.5C 744.319,132.409 744.986,134.075 744,136.5C 732.835,149.174 719.002,154.007 702.5,151C 691.224,145.864 685.89,137.031 686.5,124.5C 688.459,103.735 697.792,87.2355 714.5,75C 720.02,72.11 725.686,69.9433 731.5,68.5 Z M 724.5,76.5 C 732.274,74.7143 737.274,77.5477 739.5,85C 738.482,91.6816 734.816,96.3483 728.5,99C 720.988,101.535 713.322,103.369 705.5,104.5C 706.98,91.9963 713.313,82.663 724.5,76.5 Z"/></g>
<g><path style="opacity:0.954" fill="#3aae6b" d="M 346.5,69.5 C 350.673,68.9564 354.506,69.623 358,71.5C 358.667,75.1667 358.667,78.8333 358,82.5C 354.165,98.5061 350.332,114.506 346.5,130.5C 348.361,138.924 353.027,140.757 360.5,136C 372.183,124.816 381.017,111.65 387,96.5C 390.133,88.2673 392.966,79.9339 395.5,71.5C 400.104,70.174 404.771,69.674 409.5,70C 402.44,91.6293 398.607,113.796 398,136.5C 398.791,140.441 401.124,142.775 405,143.5C 408.009,142.997 410.842,141.997 413.5,140.5C 416.105,142.236 416.105,144.069 413.5,146C 406.581,150.97 398.914,152.637 390.5,151C 384.794,147.086 382.127,141.586 382.5,134.5C 383.528,126.746 384.695,119.079 386,111.5C 379.518,127.309 369.351,140.142 355.5,150C 337.888,155.395 330.388,148.895 333,130.5C 337.236,114.391 341.069,98.2247 344.5,82C 343.833,81 343.167,80 342.5,79C 338.029,78.2672 333.695,78.7672 329.5,80.5C 328.24,78.6471 328.24,76.8138 329.5,75C 335.249,73.0269 340.916,71.1936 346.5,69.5 Z"/></g>
<g><path style="opacity:0.959" fill="#11100b" d="M 624.5,69.5 C 628.722,69.0781 632.722,69.7448 636.5,71.5C 628.851,93.2445 624.351,115.578 623,138.5C 623.943,140.954 625.776,141.954 628.5,141.5C 632.329,141.113 635.996,140.113 639.5,138.5C 640.848,140.611 640.515,142.445 638.5,144C 630.188,149.219 621.188,151.552 611.5,151C 609.039,148.173 608.039,144.84 608.5,141C 611.251,118.245 615.418,95.7445 621,73.5C 621.69,71.6498 622.856,70.3164 624.5,69.5 Z"/></g>
<g><path style="opacity:0.932" fill="#11100b" d="M 435.5,198.5 C 433.516,198.617 431.85,197.95 430.5,196.5C 432.6,193.289 434.934,190.289 437.5,187.5C 470.661,152.173 504.994,118.006 540.5,85C 529.165,84.2536 517.832,83.9203 506.5,84C 501.952,86.9219 499.285,91.0886 498.5,96.5C 496.833,96.5 495.167,96.5 493.5,96.5C 493.803,89.4235 495.636,82.7568 499,76.5C 500.938,73.8941 503.438,72.0608 506.5,71C 518.032,70.536 529.532,71.036 541,72.5C 546.708,72.5915 552.208,71.5915 557.5,69.5C 558.833,70.1667 559.833,71.1667 560.5,72.5C 556.571,78.5986 552.071,84.2652 547,89.5C 515.806,121.028 484.306,152.195 452.5,183C 490.634,171.978 529.634,165.311 569.5,163C 618.839,159.198 668.173,158.865 717.5,162C 734.44,160.725 746.107,152.391 752.5,137C 758.405,136.207 760.072,138.707 757.5,144.5C 756.088,145.806 754.421,146.64 752.5,147C 736.944,163.646 717.944,169.312 695.5,164C 625.397,160.546 556.063,166.213 487.5,181C 469.42,185.01 452.087,190.843 435.5,198.5 Z"/></g>
<g><path style="opacity:0.888" fill="#3aae6b" d="M 807.5,74.5 C 809.567,74.5323 810.9,75.5323 811.5,77.5C 804.613,98.3787 799.946,119.712 797.5,141.5C 807.847,140.741 807.847,142.241 797.5,146C 795.19,146.497 792.857,146.663 790.5,146.5C 790.544,140.788 790.711,135.121 791,129.5C 787.882,134.286 784.382,138.786 780.5,143C 768.161,150.34 762.995,146.84 765,132.5C 768.581,114.744 779.247,106.411 797,107.5C 798.929,97.0172 801.429,86.6839 804.5,76.5C 805.602,75.8243 806.602,75.1577 807.5,74.5 Z M 785.5,111.5 C 788.579,111.26 791.579,111.593 794.5,112.5C 792.492,122.436 787.492,130.936 779.5,138C 774.253,140.944 771.92,139.444 772.5,133.5C 772.77,123.608 777.103,116.275 785.5,111.5 Z"/></g>
<g><path style="opacity:0.888" fill="#39ad6c" d="M 827.5,107.5 C 838.229,105.389 842.062,109.389 839,119.5C 837.269,121.617 835.102,123.117 832.5,124C 827.274,125.704 821.941,126.87 816.5,127.5C 816.979,141.74 822.979,144.74 834.5,136.5C 836.101,137.035 836.601,138.035 836,139.5C 828.928,147.046 820.928,148.379 812,143.5C 807.035,127.1 812.201,115.1 827.5,107.5 Z M 826.5,111.5 C 834.186,112.389 835.186,115.555 829.5,121C 825.986,122.562 822.319,123.395 818.5,123.5C 819.679,118.467 822.345,114.467 826.5,111.5 Z"/></g>
<g><path style="opacity:0.998" fill="#3bae6c" d="M 437.5,187.5 C 434.934,190.289 432.6,193.289 430.5,196.5C 431.85,197.95 433.516,198.617 435.5,198.5C 436.848,199.601 438.348,200.601 440,201.5C 450.038,196.039 460.538,191.539 471.5,188C 586.833,187.333 702.167,187.333 817.5,188C 830.674,192.008 839.341,200.508 843.5,213.5C 843.5,218.833 843.5,224.167 843.5,229.5C 839.158,242.509 830.491,251.175 817.5,255.5C 553.5,255.5 289.5,255.5 25.5,255.5C 12.5086,251.175 3.84197,242.509 -0.5,229.5C -0.5,224.167 -0.5,218.833 -0.5,213.5C 3.65946,200.508 12.3261,192.008 25.5,188C 162.833,187.5 300.166,187.333 437.5,187.5 Z"/></g>
<g><path style="opacity:1" fill="#edf8f2" d="M 386.5,208.5 C 387.5,208.5 388.5,208.5 389.5,208.5C 389.5,209.5 389.5,210.5 389.5,211.5C 388.5,211.5 387.5,211.5 386.5,211.5C 386.5,210.5 386.5,209.5 386.5,208.5 Z"/></g>
<g><path style="opacity:1" fill="#f8fcf9" d="M 391.5,208.5 C 392.5,208.5 393.5,208.5 394.5,208.5C 394.5,209.5 394.5,210.5 394.5,211.5C 393.5,211.5 392.5,211.5 391.5,211.5C 391.5,210.5 391.5,209.5 391.5,208.5 Z"/></g>
<g><path style="opacity:1" fill="#f0f8f3" d="M 188.5,212.5 C 191.649,212.211 194.649,212.711 197.5,214C 199.037,215.11 199.703,216.61 199.5,218.5C 196.459,218.449 193.792,217.449 191.5,215.5C 189.971,215.529 188.804,216.196 188,217.5C 186.977,221.317 187.477,224.817 189.5,228C 192.784,228.981 195.451,228.147 197.5,225.5C 199.394,228.278 198.394,230.445 194.5,232C 184.983,231.791 181.483,226.957 184,217.5C 185.025,215.313 186.525,213.646 188.5,212.5 Z"/></g>
<g><path style="opacity:1" fill="#f0f8f3" d="M 355.5,212.5 C 358.978,212.184 362.312,212.684 365.5,214C 366.38,215.356 366.714,216.856 366.5,218.5C 363.761,218.293 361.427,217.293 359.5,215.5C 358,215.453 357,216.119 356.5,217.5C 360.089,219.281 363.589,221.281 367,223.5C 367.223,230.594 363.723,233.427 356.5,232C 353.762,230.688 352.428,228.522 352.5,225.5C 355.315,225.892 357.815,226.892 360,228.5C 362.756,228.576 363.923,227.243 363.5,224.5C 358.25,224.389 354.584,222.056 352.5,217.5C 353.092,215.577 354.092,213.911 355.5,212.5 Z"/></g>
<g><path style="opacity:1" fill="#f1f9f4" d="M 386.5,212.5 C 397.16,211.328 401.327,215.994 399,226.5C 396.647,231.426 392.814,233.26 387.5,232C 381.891,228.723 380.058,223.89 382,217.5C 383.025,215.313 384.525,213.646 386.5,212.5 Z"/></g>
<g><path style="opacity:1" fill="#eff8f3" d="M 495.5,212.5 C 500.797,211.308 504.797,212.974 507.5,217.5C 506.833,217.833 506.167,218.167 505.5,218.5C 497.511,213.631 494.011,215.965 495,225.5C 496.305,228.306 498.472,229.14 501.5,228C 503.081,225.605 505.081,225.105 507.5,226.5C 501.474,234.795 495.974,234.461 491,225.5C 489.675,220.157 491.175,215.824 495.5,212.5 Z"/></g>
<g><path style="opacity:1" fill="#eef8f2" d="M 574.5,212.5 C 577.187,212.336 579.854,212.503 582.5,213C 584.607,214.264 585.607,216.097 585.5,218.5C 582.545,216.614 579.211,215.614 575.5,215.5C 575.33,216.822 575.663,217.989 576.5,219C 579.512,219.78 582.345,220.947 585,222.5C 587.273,228.434 585.107,231.767 578.5,232.5C 574.406,232.406 571.739,230.406 570.5,226.5C 571.167,226.167 571.833,225.833 572.5,225.5C 574.04,227.363 576.04,228.363 578.5,228.5C 580.319,228.658 581.652,227.991 582.5,226.5C 579.012,224.602 575.512,222.602 572,220.5C 570.837,217.029 571.67,214.362 574.5,212.5 Z"/></g>
<g><path style="opacity:1" fill="#eff8f2" d="M 604.5,212.5 C 607.187,212.336 609.854,212.503 612.5,213C 615.87,214.465 616.537,216.298 614.5,218.5C 605.837,213.634 602.67,216.301 605,226.5C 605.956,227.894 607.289,228.561 609,228.5C 610.838,227.465 612.671,226.465 614.5,225.5C 616.394,228.278 615.394,230.445 611.5,232C 601.983,231.791 598.483,226.957 601,217.5C 601.997,215.677 603.164,214.01 604.5,212.5 Z"/></g>
<g><path style="opacity:1" fill="#f8fcf9" d="M 62.5,215.5 C 58.8333,215.5 55.1667,215.5 51.5,215.5C 51.5,217.167 51.5,218.833 51.5,220.5C 54.8333,220.5 58.1667,220.5 61.5,220.5C 61.5,221.5 61.5,222.5 61.5,223.5C 58.5,223.5 55.5,223.5 52.5,223.5C 52.5,225.167 52.5,226.833 52.5,228.5C 55.8333,228.5 59.1667,228.5 62.5,228.5C 62.5,229.5 62.5,230.5 62.5,231.5C 57.8333,231.5 53.1667,231.5 48.5,231.5C 48.5,225.167 48.5,218.833 48.5,212.5C 53.1667,212.5 57.8333,212.5 62.5,212.5C 62.5,213.5 62.5,214.5 62.5,215.5 Z"/></g>
<g><path style="opacity:1" fill="#f0f9f4" d="M 77.5,212.5 C 78.8333,212.5 80.1667,212.5 81.5,212.5C 81.5,218.833 81.5,225.167 81.5,231.5C 80.1667,231.5 78.8333,231.5 77.5,231.5C 77.5,225.167 77.5,218.833 77.5,212.5 Z"/></g>
<g><path style="opacity:1" fill="#f7fbf9" d="M 96.5,212.5 C 97.9778,212.238 99.3112,212.571 100.5,213.5C 102.418,217.004 104.584,220.337 107,223.5C 107.499,219.848 107.665,216.182 107.5,212.5C 108.833,212.5 110.167,212.5 111.5,212.5C 111.5,218.833 111.5,225.167 111.5,231.5C 109.278,231.822 107.444,231.155 106,229.5C 104,226.167 102,222.833 100,219.5C 99.5012,223.486 99.3345,227.486 99.5,231.5C 98.5,231.5 97.5,231.5 96.5,231.5C 96.5,225.167 96.5,218.833 96.5,212.5 Z"/></g>
<g><path style="opacity:1" fill="#f3faf6" d="M 126.5,212.5 C 131.167,212.5 135.833,212.5 140.5,212.5C 140.5,213.5 140.5,214.5 140.5,215.5C 137.167,215.5 133.833,215.5 130.5,215.5C 130.5,217.167 130.5,218.833 130.5,220.5C 133.167,220.5 135.833,220.5 138.5,220.5C 138.5,221.5 138.5,222.5 138.5,223.5C 135.833,223.5 133.167,223.5 130.5,223.5C 130.5,226.167 130.5,228.833 130.5,231.5C 129.167,231.5 127.833,231.5 126.5,231.5C 126.5,225.167 126.5,218.833 126.5,212.5 Z"/></g>
<g><path style="opacity:1" fill="#f4faf7" d="M 158.5,212.5 C 160.144,212.286 161.644,212.62 163,213.5C 165.67,219.345 167.836,225.345 169.5,231.5C 168.167,231.5 166.833,231.5 165.5,231.5C 165.625,228.107 163.958,226.774 160.5,227.5C 159.167,227.833 157.833,228.167 156.5,228.5C 155.543,231.15 153.876,231.817 151.5,230.5C 153.841,224.471 156.175,218.471 158.5,212.5 Z"/></g>
<g><path style="opacity:1" fill="#f5fbf7" d="M 218.5,219.5 C 220.948,220.473 223.615,220.806 226.5,220.5C 226.5,217.833 226.5,215.167 226.5,212.5C 227.5,212.5 228.5,212.5 229.5,212.5C 229.5,218.833 229.5,225.167 229.5,231.5C 228.167,231.5 226.833,231.5 225.5,231.5C 225.5,228.833 225.5,226.167 225.5,223.5C 223.167,223.5 220.833,223.5 218.5,223.5C 218.5,226.167 218.5,228.833 218.5,231.5C 217.167,231.5 215.833,231.5 214.5,231.5C 214.5,225.167 214.5,218.833 214.5,212.5C 215.833,212.5 217.167,212.5 218.5,212.5C 218.5,214.833 218.5,217.167 218.5,219.5 Z"/></g>
<g><path style="opacity:1" fill="#a4d9ba" d="M 226.5,212.5 C 226.5,215.167 226.5,217.833 226.5,220.5C 223.615,220.806 220.948,220.473 218.5,219.5C 220.833,219.5 223.167,219.5 225.5,219.5C 225.198,216.941 225.532,214.607 226.5,212.5 Z"/></g>
<g><path style="opacity:1" fill="#f4faf6" d="M 263.5,212.5 C 267.514,212.334 271.514,212.501 275.5,213C 279.01,216.048 279.343,219.381 276.5,223C 273.649,224.289 270.649,224.789 267.5,224.5C 267.5,226.833 267.5,229.167 267.5,231.5C 266.167,231.5 264.833,231.5 263.5,231.5C 263.5,225.167 263.5,218.833 263.5,212.5 Z"/></g>
<g><path style="opacity:1" fill="#fafdfb" d="M 307.5,215.5 C 303.833,215.5 300.167,215.5 296.5,215.5C 296.5,217.167 296.5,218.833 296.5,220.5C 299.833,220.5 303.167,220.5 306.5,220.5C 306.5,221.5 306.5,222.5 306.5,223.5C 303.167,223.5 299.833,223.5 296.5,223.5C 296.5,225.167 296.5,226.833 296.5,228.5C 300.167,228.5 303.833,228.5 307.5,228.5C 307.5,229.5 307.5,230.5 307.5,231.5C 302.833,231.5 298.167,231.5 293.5,231.5C 293.5,225.167 293.5,218.833 293.5,212.5C 298.167,212.5 302.833,212.5 307.5,212.5C 307.5,213.5 307.5,214.5 307.5,215.5 Z"/></g>
<g><path style="opacity:1" fill="#f7fbf9" d="M 329.5,224.5 C 328.432,223.566 327.099,223.232 325.5,223.5C 325.5,226.167 325.5,228.833 325.5,231.5C 324.5,231.5 323.5,231.5 322.5,231.5C 322.5,225.167 322.5,218.833 322.5,212.5C 326.514,212.334 330.514,212.501 334.5,213C 335.416,213.374 336.25,213.874 337,214.5C 337.667,216.833 337.667,219.167 337,221.5C 335.795,222.071 334.628,222.738 333.5,223.5C 335.555,225.555 337.221,227.888 338.5,230.5C 337.277,231.614 335.944,231.781 334.5,231C 332.934,228.674 331.268,226.508 329.5,224.5 Z"/></g>
<g><path style="opacity:1" fill="#fbfdfc" d="M 424.5,223.5 C 424.783,224.289 425.283,224.956 426,225.5C 426.499,221.179 426.666,216.846 426.5,212.5C 427.5,212.5 428.5,212.5 429.5,212.5C 429.5,218.833 429.5,225.167 429.5,231.5C 427.278,231.822 425.444,231.155 424,229.5C 422,226.167 420,222.833 418,219.5C 417.501,223.486 417.334,227.486 417.5,231.5C 416.5,231.5 415.5,231.5 414.5,231.5C 414.5,225.167 414.5,218.833 414.5,212.5C 415.978,212.238 417.311,212.571 418.5,213.5C 420.925,216.589 422.925,219.922 424.5,223.5 Z"/></g>
<g><path style="opacity:1" fill="#aadcbf" d="M 426.5,212.5 C 426.666,216.846 426.499,221.179 426,225.5C 425.283,224.956 424.783,224.289 424.5,223.5C 425.167,219.833 425.833,216.167 426.5,212.5 Z"/></g>
<g><path style="opacity:1" fill="#fcfdfd" d="M 445.5,212.5 C 446.5,212.5 447.5,212.5 448.5,212.5C 448.5,217.833 448.5,223.167 448.5,228.5C 451.833,228.5 455.167,228.5 458.5,228.5C 458.5,229.5 458.5,230.5 458.5,231.5C 454.167,231.5 449.833,231.5 445.5,231.5C 445.5,225.167 445.5,218.833 445.5,212.5 Z"/></g>
<g><path style="opacity:1" fill="#f9fdfb" d="M 472.5,212.5 C 473.833,212.5 475.167,212.5 476.5,212.5C 476.5,218.833 476.5,225.167 476.5,231.5C 475.167,231.5 473.833,231.5 472.5,231.5C 472.5,225.167 472.5,218.833 472.5,212.5 Z"/></g>
<g><path style="opacity:1" fill="#fafdfb" d="M 522.5,212.5 C 523.5,212.5 524.5,212.5 525.5,212.5C 525.5,215.167 525.5,217.833 525.5,220.5C 528.167,220.5 530.833,220.5 533.5,220.5C 533.5,217.833 533.5,215.167 533.5,212.5C 534.833,212.5 536.167,212.5 537.5,212.5C 537.5,218.833 537.5,225.167 537.5,231.5C 536.167,231.5 534.833,231.5 533.5,231.5C 533.5,228.833 533.5,226.167 533.5,223.5C 530.833,223.5 528.167,223.5 525.5,223.5C 525.5,226.167 525.5,228.833 525.5,231.5C 524.5,231.5 523.5,231.5 522.5,231.5C 522.5,225.167 522.5,218.833 522.5,212.5 Z"/></g>
<g><path style="opacity:1" fill="#f7fbf9" d="M 634.5,212.5 C 634.5,215.167 634.5,217.833 634.5,220.5C 637.5,220.5 640.5,220.5 643.5,220.5C 643.5,217.833 643.5,215.167 643.5,212.5C 644.5,212.5 645.5,212.5 646.5,212.5C 646.5,218.833 646.5,225.167 646.5,231.5C 645.167,231.5 643.833,231.5 642.5,231.5C 642.5,228.833 642.5,226.167 642.5,223.5C 640.167,223.5 637.833,223.5 635.5,223.5C 635.5,226.167 635.5,228.833 635.5,231.5C 634.167,231.5 632.833,231.5 631.5,231.5C 631.5,225.167 631.5,218.833 631.5,212.5C 632.5,212.5 633.5,212.5 634.5,212.5 Z"/></g>
<g><path style="opacity:1" fill="#b0dec3" d="M 634.5,212.5 C 635.468,214.607 635.802,216.941 635.5,219.5C 637.833,219.5 640.167,219.5 642.5,219.5C 642.198,216.941 642.532,214.607 643.5,212.5C 643.5,215.167 643.5,217.833 643.5,220.5C 640.5,220.5 637.5,220.5 634.5,220.5C 634.5,217.833 634.5,215.167 634.5,212.5 Z"/></g>
<g><path style="opacity:1" fill="#fafdfb" d="M 676.5,215.5 C 672.833,215.5 669.167,215.5 665.5,215.5C 665.5,217.167 665.5,218.833 665.5,220.5C 668.833,220.5 672.167,220.5 675.5,220.5C 675.5,221.5 675.5,222.5 675.5,223.5C 672.167,223.5 668.833,223.5 665.5,223.5C 665.5,225.167 665.5,226.833 665.5,228.5C 669.167,228.5 672.833,228.5 676.5,228.5C 676.5,229.5 676.5,230.5 676.5,231.5C 671.833,231.5 667.167,231.5 662.5,231.5C 662.5,225.167 662.5,218.833 662.5,212.5C 667.167,212.5 671.833,212.5 676.5,212.5C 676.5,213.5 676.5,214.5 676.5,215.5 Z"/></g>
<g><path style="opacity:1" fill="#f6fbf8" d="M 691.5,212.5 C 692.978,212.238 694.311,212.571 695.5,213.5C 697.418,217.004 699.584,220.337 702,223.5C 702.499,219.848 702.665,216.182 702.5,212.5C 703.833,212.5 705.167,212.5 706.5,212.5C 706.5,218.833 706.5,225.167 706.5,231.5C 704.278,231.822 702.444,231.155 701,229.5C 699,226.167 697,222.833 695,219.5C 694.501,223.486 694.334,227.486 694.5,231.5C 693.5,231.5 692.5,231.5 691.5,231.5C 691.5,225.167 691.5,218.833 691.5,212.5 Z"/></g>
<g><path style="opacity:1" fill="#9bd6b3" d="M 722.5,212.5 C 722.5,218.833 722.5,225.167 722.5,231.5C 723.5,231.5 724.5,231.5 725.5,231.5C 724.432,232.434 723.099,232.768 721.5,232.5C 721.176,225.646 721.509,218.979 722.5,212.5 Z"/></g>
<g><path style="opacity:1" fill="#f8fcfa" d="M 722.5,212.5 C 723.5,212.5 724.5,212.5 725.5,212.5C 725.187,215.247 725.52,217.914 726.5,220.5C 728.65,217.849 730.983,215.349 733.5,213C 735.167,212.333 736.833,212.333 738.5,213C 736.167,215.333 733.833,217.667 731.5,220C 733.709,223.586 736.043,227.086 738.5,230.5C 736.833,231.833 735.167,231.833 733.5,230.5C 729.272,220.962 726.605,221.296 725.5,231.5C 724.5,231.5 723.5,231.5 722.5,231.5C 722.5,225.167 722.5,218.833 722.5,212.5 Z"/></g>
<g><path style="opacity:1" fill="#fafdfb" d="M 756.5,219.5 C 759.358,220.166 762.358,220.833 765.5,221.5C 762.358,222.167 759.358,222.834 756.5,223.5C 756.5,225.167 756.5,226.833 756.5,228.5C 760.167,228.5 763.833,228.5 767.5,228.5C 767.5,229.5 767.5,230.5 767.5,231.5C 762.5,231.5 757.5,231.5 752.5,231.5C 752.5,225.167 752.5,218.833 752.5,212.5C 757.167,212.5 761.833,212.5 766.5,212.5C 766.5,213.5 766.5,214.5 766.5,215.5C 763.167,215.5 759.833,215.5 756.5,215.5C 756.5,216.833 756.5,218.167 756.5,219.5 Z"/></g>
<g><path style="opacity:1" fill="#f4faf7" d="M 796.5,212.5 C 796.5,218.833 796.5,225.167 796.5,231.5C 795.5,231.5 794.5,231.5 793.5,231.5C 791.023,227.899 788.523,224.233 786,220.5C 785.501,224.152 785.335,227.818 785.5,231.5C 784.167,231.5 782.833,231.5 781.5,231.5C 781.5,225.167 781.5,218.833 781.5,212.5C 783.722,212.178 785.556,212.845 787,214.5C 789,217.833 791,221.167 793,224.5C 793.499,220.514 793.666,216.514 793.5,212.5C 794.5,212.5 795.5,212.5 796.5,212.5 Z"/></g>
<g><path style="opacity:1" fill="#a4d9ba" d="M 796.5,212.5 C 797.491,218.979 797.824,225.646 797.5,232.5C 795.901,232.768 794.568,232.434 793.5,231.5C 794.5,231.5 795.5,231.5 796.5,231.5C 796.5,225.167 796.5,218.833 796.5,212.5 Z"/></g>
<g><path style="opacity:1" fill="#52b67b" d="M 267.5,215.5 C 269.527,215.338 271.527,215.505 273.5,216C 274.833,217.667 274.833,219.333 273.5,221C 271.527,221.495 269.527,221.662 267.5,221.5C 267.5,219.5 267.5,217.5 267.5,215.5 Z"/></g>
<g><path style="opacity:1" fill="#a3d9b9" d="M 332.5,216.5 C 330.5,216.5 328.5,216.5 326.5,216.5C 326.5,217.833 326.5,219.167 326.5,220.5C 325.549,219.081 325.216,217.415 325.5,215.5C 328.059,215.198 330.393,215.532 332.5,216.5 Z"/></g>
<g><path style="opacity:1" fill="#3daf6d" d="M 332.5,216.5 C 333.434,217.568 333.768,218.901 333.5,220.5C 331.167,220.5 328.833,220.5 326.5,220.5C 326.5,219.167 326.5,217.833 326.5,216.5C 328.5,216.5 330.5,216.5 332.5,216.5 Z"/></g>
<g><path style="opacity:1" fill="#40b06f" d="M 388.5,215.5 C 390.936,215.317 393.103,215.984 395,217.5C 396.023,221.317 395.523,224.817 393.5,228C 386.475,228.867 383.975,225.7 386,218.5C 387.045,217.627 387.878,216.627 388.5,215.5 Z"/></g>
<g><path style="opacity:1" fill="#8dcfa9" d="M 62.5,215.5 C 59.3752,216.479 56.0419,216.813 52.5,216.5C 52.5,217.5 52.5,218.5 52.5,219.5C 55.7131,219.19 58.7131,219.523 61.5,220.5C 58.1667,220.5 54.8333,220.5 51.5,220.5C 51.5,218.833 51.5,217.167 51.5,215.5C 55.1667,215.5 58.8333,215.5 62.5,215.5 Z"/></g>
<g><path style="opacity:1" fill="#58b980" d="M 159.5,218.5 C 161.969,219.607 162.969,221.607 162.5,224.5C 161.167,224.5 159.833,224.5 158.5,224.5C 158.517,222.435 158.85,220.435 159.5,218.5 Z"/></g>
<g><path style="opacity:1" fill="#87cda5" d="M 307.5,215.5 C 304.375,216.479 301.042,216.813 297.5,216.5C 297.5,217.5 297.5,218.5 297.5,219.5C 300.713,219.19 303.713,219.523 306.5,220.5C 303.167,220.5 299.833,220.5 296.5,220.5C 296.5,218.833 296.5,217.167 296.5,215.5C 300.167,215.5 303.833,215.5 307.5,215.5 Z"/></g>
<g><path style="opacity:1" fill="#88cda6" d="M 676.5,215.5 C 673.375,216.479 670.042,216.813 666.5,216.5C 666.5,217.5 666.5,218.5 666.5,219.5C 669.713,219.19 672.713,219.523 675.5,220.5C 672.167,220.5 668.833,220.5 665.5,220.5C 665.5,218.833 665.5,217.167 665.5,215.5C 669.167,215.5 672.833,215.5 676.5,215.5 Z"/></g>
<g><path style="opacity:1" fill="#bce3cd" d="M 756.5,219.5 C 759.833,219.5 763.167,219.5 766.5,219.5C 766.5,220.833 766.5,222.167 766.5,223.5C 763.167,223.5 759.833,223.5 756.5,223.5C 759.358,222.834 762.358,222.167 765.5,221.5C 762.358,220.833 759.358,220.166 756.5,219.5 Z"/></g>
<g><path style="opacity:1" fill="#a1d8b8" d="M 329.5,224.5 C 328.5,224.5 327.5,224.5 326.5,224.5C 326.5,227.167 326.5,229.833 326.5,232.5C 324.901,232.768 323.568,232.434 322.5,231.5C 323.5,231.5 324.5,231.5 325.5,231.5C 325.5,228.833 325.5,226.167 325.5,223.5C 327.099,223.232 328.432,223.566 329.5,224.5 Z"/></g>
</svg>